<svg width="55" height="40" viewBox="0 0 55 40" fill="none" xmlns="http://www.w3.org/2000/svg">
<g clip-path="url(#clip0_1535_1373)">
<path fill-rule="evenodd" clip-rule="evenodd" d="M9.79887 39.8089H11.0563V33.0146H9.60542L7.38068 35.9811L5.25267 33.0146H3.80176V39.8089H5.05922V34.8328L7.28395 37.7993H7.47741L9.79887 34.9285V39.8089ZM46.1685 33.0146H44.6208L47.2325 37.0338V39.8089H48.49V37.0338L51.2951 33.0146H49.7474L47.9096 35.7897L46.1685 33.0146ZM44.4274 39.7132L42.3961 37.4165C43.6536 37.1295 44.1372 36.1725 44.1372 35.2156C44.1372 34.0673 43.2667 33.0146 41.6223 33.0146C40.5583 33.0146 39.3975 33.0146 38.3335 33.0146V39.8089H39.6877V37.5122H40.9452L42.8797 39.8089H44.4274V39.7132ZM41.6223 34.163C42.3961 34.163 42.783 34.7371 42.783 35.3113C42.783 35.8854 42.4928 36.3639 41.6223 36.3639H39.6877V34.163H41.6223ZM37.3663 38.5649H33.4972V37.0338H37.1728V35.7897H33.4972V34.2586H37.3663V33.0146H32.143C32.143 35.3113 32.143 37.5122 32.143 39.8089H37.3663V38.5649ZM27.887 39.8089H29.2411V34.163H31.3692V33.0146C29.4346 33.0146 27.6935 33.0146 25.7589 33.0146V34.163H27.887V39.8089ZM24.8884 34.163C24.4048 33.1103 23.3408 32.8232 22.18 32.8232C20.9226 32.8232 19.5684 33.3974 19.5684 34.7371C19.5684 36.2682 20.8258 36.651 22.2767 36.8424C23.1473 36.9381 23.8244 37.2252 23.8244 37.7993C23.8244 38.5649 23.0506 38.852 22.2767 38.852C21.4062 38.852 20.6324 38.5649 20.3422 37.7993L19.2782 38.2778C19.7618 39.5218 20.8258 40.0003 22.2767 40.0003C23.8244 40.0003 25.1786 39.3304 25.1786 37.7993C25.1786 36.1725 23.8244 35.7897 22.3735 35.6941C21.5029 35.5984 20.8258 35.407 20.8258 34.8328C20.8258 34.2586 21.3095 33.8759 22.2767 33.8759C23.0506 33.8759 23.6309 34.2586 23.9211 34.6414L24.8884 34.163ZM17.7305 39.8089H19.1815L16.0862 33.0146H14.6353L11.54 39.8089H12.9909L13.5713 38.5649H17.1502L17.7305 39.8089ZM16.6665 37.3208H14.0549L15.4091 34.45L16.6665 37.3208Z" fill="white"/>
<path fill-rule="evenodd" clip-rule="evenodd" d="M42.9767 8.99539C41.2355 5.45472 37.5599 4.40209 33.981 4.40209C32.2399 4.40209 30.4988 4.78487 29.0479 5.35903C28.0806 6.02889 27.4035 6.69874 27.0166 7.17721C27.3068 5.93319 27.9839 5.07195 29.0479 4.49779V1.81836C24.6951 1.81836 21.5031 1.81836 17.2471 1.81836V6.31597H24.1147V16.5552C24.1147 20.4786 23.1475 23.5408 18.698 23.5408C14.8289 23.5408 12.7009 21.8184 12.314 18.3734H7.38086C8.05795 24.6892 12.6042 28.0385 18.698 28.0385C21.6966 28.0385 23.1475 27.2729 24.8886 25.8375C24.5984 25.2633 24.4049 24.6892 24.3082 23.9236C24.5984 24.3064 24.9853 24.7849 25.3722 25.359C27.3068 27.7514 30.4021 28.6126 34.0777 28.6126C35.4319 28.6126 36.6894 28.5169 37.8501 28.1341L36.109 27.0815L33.4006 25.5504V24.7849C31.1759 24.5935 29.0479 23.6365 27.9839 21.8184C28.5642 20.383 28.9511 18.6605 28.9511 16.8423C30.4988 17.4164 32.2399 17.7992 34.0777 17.9906C34.5613 18.0863 35.045 18.0863 35.5286 18.182L36.109 17.8949L38.8174 16.3638L41.5257 17.8949L43.3636 18.9475C42.2028 15.5026 38.4304 14.5456 34.4646 14.0672C31.6595 13.7801 29.338 13.2059 29.338 11.1964C29.338 9.47386 30.8857 8.13415 34.0777 8.13415C36.5926 8.13415 38.7206 9.37817 39.5912 10.7179L42.9767 8.99539Z" fill="white"/>
<path fill-rule="evenodd" clip-rule="evenodd" d="M46.459 28.9951C48.1034 29.1865 50.0379 29.0908 51.1986 27.9425C52.2626 26.8898 52.5528 25.3587 52.5528 23.9233V19.0429C52.5528 17.1291 53.2299 15.6937 54.971 15.4066V13.6841C53.2299 13.397 52.5528 11.8659 52.5528 10.0477V5.16735C52.5528 3.73194 52.2626 2.10515 51.1986 1.14821C50.0379 -0.0958096 48.1034 -0.0958097 46.459 0.0955779V1.81807C48.6837 1.62668 49.651 2.8707 49.651 5.35874V10.0477C49.651 10.8133 49.5543 11.9616 49.8445 12.7272C50.2314 13.4927 51.1986 14.0669 52.0692 14.5453C51.1986 15.0238 50.2314 15.598 49.8445 16.3635C49.5543 17.1291 49.651 18.2774 49.651 19.0429V23.7319C49.651 26.4114 48.7804 27.2726 46.459 27.1769V28.9951Z" fill="white"/>
<path fill-rule="evenodd" clip-rule="evenodd" d="M38.8168 14.9277L42.1055 16.8416L45.3943 18.6598V22.4875V26.3153L42.1055 28.2292L38.8168 30.143L35.4313 28.2292L32.1426 26.3153V22.4875V18.6598L35.4313 16.8416L38.8168 14.9277ZM38.8168 16.3631L41.5252 17.8942L44.1368 19.4253V22.4875V25.5497L41.5252 27.0808L38.8168 28.7076L36.1084 27.0808L33.4 25.5497V22.4875V19.4253L36.1084 17.8942L38.8168 16.3631Z" fill="white"/>
<path fill-rule="evenodd" clip-rule="evenodd" d="M34.9476 23.158V24.1149H34.2705V20.8613C34.7541 20.8613 35.2378 20.8613 35.8182 20.8613C37.3658 20.8613 37.3658 23.158 35.8182 23.158H34.9476ZM38.4298 23.0623H37.9462V24.1149H37.2691V20.8613H37.3658C37.8494 20.8613 38.3331 20.8613 38.8167 20.8613C39.4938 20.8613 39.9774 21.2441 39.9774 22.0097C39.9774 22.4881 39.784 22.8709 39.3003 22.9666L40.1709 24.0192V24.1149H39.3971L38.4298 23.0623ZM41.8153 20.8613C42.8793 20.8613 43.5564 21.5312 43.4596 22.4881C43.4596 23.4451 42.8793 24.2106 41.8153 24.2106C40.848 24.2106 40.1709 23.5408 40.1709 22.4881C40.1709 21.5312 40.848 20.8613 41.8153 20.8613ZM34.9476 21.5312V22.4881H35.8182C36.4952 22.4881 36.4952 21.5312 35.8182 21.5312H34.9476ZM37.9462 21.5312V22.3924H38.8167C39.1069 22.3924 39.3003 22.2967 39.3003 22.0097C39.3003 21.7226 39.1069 21.5312 38.8167 21.5312H37.9462ZM41.8153 21.4355C41.2349 21.4355 40.848 21.914 40.848 22.4881C40.848 23.0623 41.2349 23.5408 41.8153 23.5408C42.4924 23.5408 42.7825 23.0623 42.7825 22.4881C42.7825 21.914 42.4924 21.4355 41.8153 21.4355Z" fill="white"/>
<path fill-rule="evenodd" clip-rule="evenodd" d="M8.54133 28.9951C6.89696 29.1865 5.05914 29.0908 3.80168 27.9425C2.73767 26.8898 2.44749 25.3587 2.44749 23.9233V19.0429C2.44749 17.1291 1.86712 15.6937 0.0292969 15.4066V13.6841C1.86712 13.397 2.44749 11.8659 2.44749 10.0477V5.16735C2.44749 3.73194 2.73767 2.10515 3.80168 1.14821C5.05914 -0.0958096 6.89696 -0.0958097 8.54133 0.0955779V1.81807C6.3166 1.62668 5.44605 2.8707 5.44605 5.35874V10.0477C5.44605 10.8133 5.44605 11.9616 5.15586 12.7272C4.76895 13.4927 3.80168 14.0669 2.93113 14.5453C3.80168 15.0238 4.76895 15.598 5.15586 16.3635C5.44605 17.1291 5.44605 18.2774 5.44605 19.0429V23.7319C5.44605 26.4114 6.21987 27.2726 8.54133 27.1769V28.9951Z" fill="white"/>
</g>
<defs>
<clipPath id="clip0_1535_1373">
<rect width="55" height="40" fill="white"/>
</clipPath>
</defs>
</svg>
