<svg xmlns="http://www.w3.org/2000/svg" version="1.1" xmlns:xlink="http://www.w3.org/1999/xlink" xmlns:svgjs="http://svgjs.dev/svgjs" width="1000" height="1000" viewBox="0 0 1000 1000"><rect width="1000" height="1000" fill="#398378"></rect><g transform="matrix(0.7,0,0,0.7,149.57575757575756,285.6568020069982)"><svg viewBox="0 0 396 243" data-background-color="#398378" preserveAspectRatio="xMidYMid meet" height="613" width="1000" xmlns="http://www.w3.org/2000/svg" xmlns:xlink="http://www.w3.org/1999/xlink"><g id="tight-bounds" transform="matrix(1,0,0,1,0.2400000000000091,-0.11711229946524782)"><svg viewBox="0 0 395.52 243.2342245989305" height="243.2342245989305" width="395.52"><g><svg viewBox="0 0 395.52 243.2342245989305" height="243.2342245989305" width="395.52"><g><svg viewBox="0 0 395.52 243.2342245989305" height="243.2342245989305" width="395.52"><g><svg viewBox="0 0 395.52 243.2342245989305" height="243.2342245989305" width="395.52" id="textblock"><g><svg viewBox="0 0 395.52 243.2342245989305" height="243.2342245989305" width="395.52"><g transform="matrix(1,0,0,1,0,0)"><svg width="395.52" viewBox="4.349999904632568 -34.5 56.10000228881836 34.5" height="243.2342245989305" data-palette-color="#ffffff"><g class="undefined-text-0" data-fill-palette-color="primary" id="text-0"><path d="M23.1-34.5L27.9-34.5 17.85-20.2Q17.4-19.55 16.98-19.07 16.55-18.6 15.95-18L15.95-18 15.95-17.9Q16.6-17.3 17.15-16.7 17.7-16.1 18.1-15.5L18.1-15.5 28.6 0 23.65 0 11.4-18.05 23.1-34.5ZM4.35-34.5L8.7-34.5 8.7-23.7Q8.7-22.2 8.55-20.85 8.4-19.5 8.1-18.05L8.1-18.05Q8.35-16.65 8.53-15.25 8.7-13.85 8.7-12.55L8.7-12.55 8.7 0 4.35 0 4.35-34.5ZM7.15-19.75L13.8-19.75 13.8-16.2 7.15-16.2 7.15-19.75ZM56.1-34.5L60.45-34.5 60.45-1.75Q60.45 0 58.75 0L58.75 0 54.45 0Q53.7 0 53.25-0.35 52.8-0.7 52.5-1.4L52.5-1.4 40.85-25.85Q40.4-26.85 39.8-28.1 39.2-29.35 38.9-30.4L38.9-30.4 38.1-30.4Q38.2-29.3 38.25-28.15 38.3-27 38.3-25.85L38.3-25.85 38.3 0 33.9 0 33.9-32.75Q33.9-34.5 35.65-34.5L35.65-34.5 39.8-34.5Q40.55-34.5 41-34.15 41.45-33.8 41.75-33.1L41.75-33.1 53.05-9.25Q53.6-8.2 54.22-6.88 54.85-5.55 55.4-4.25L55.4-4.25 56.25-4.25Q56.2-5.6 56.15-6.9 56.1-8.2 56.1-9.5L56.1-9.5 56.1-34.5Z" fill="#ffffff" data-fill-palette-color="primary"></path></g></svg></g></svg></g></svg></g></svg></g></svg></g><defs></defs></svg><rect width="395.52" height="243.2342245989305" fill="none" stroke="none" visibility="hidden"></rect></g></svg></g></svg>